<svg width="3" height="5" viewBox="0 0 3 5" fill="none" xmlns="http://www.w3.org/2000/svg">
<path d="M0.265851 5.00062C0.342023 5.00062 0.406418 4.97177 0.456031 4.92295L2.77452 2.69287C2.83015 2.63838 2.85946 2.57206 2.85946 2.50031C2.85946 2.42536 2.83015 2.35657 2.77452 2.30775L0.458787 0.0808699C0.406418 0.0290934 0.342023 0 0.265851 0C0.114008 0 0 0.115141 0 0.264799C0 0.333835 0.0290656 0.403117 0.0759216 0.451934L2.20448 2.50031L0.0759216 4.54868C0.0290656 4.5975 0 4.66407 0 4.73582C0 4.88548 0.114008 5.00062 0.265851 5.00062Z" fill="#BEBEBE"/>
</svg>
