<svg width="3" height="5" viewBox="0 0 3 5" fill="none" xmlns="http://www.w3.org/2000/svg">
<path d="M2.40442 4.92176L0.0849767 2.69397C0.0293282 2.63921 0 2.57311 0 2.50109C0 2.42635 0.0320856 2.35433 0.0877341 2.30845L2.40442 0.0774498C2.45405 0.0286121 2.51847 0 2.59467 0C2.74658 0 2.86063 0.115188 2.86063 0.264908C2.86063 0.333971 2.83156 0.403035 2.78468 0.451873L0.655248 2.50109L2.78468 4.55055C2.83156 4.59938 2.86063 4.66549 2.86063 4.73751C2.86063 4.88723 2.74658 4.99921 2.59467 4.99921C2.51847 4.99921 2.45405 4.9706 2.40442 4.92176Z" fill="white"/>
</svg>
