<svg width="3" height="6" viewBox="0 0 3 6" fill="none" xmlns="http://www.w3.org/2000/svg">
<path d="M0.735144 4.76474C0.735144 5.04328 0.800959 5.27407 0.93315 5.4571C1.06506 5.64014 1.23211 5.77625 1.43402 5.86571C1.63566 5.95517 1.84204 5.99963 2.05343 5.99963C2.19287 5.99963 2.30805 5.98975 2.39897 5.96999C2.48988 5.95023 2.56044 5.93103 2.6112 5.91237L2.45921 5.25129C2.42741 5.2576 2.38502 5.26528 2.33231 5.27461C2.27961 5.28394 2.21183 5.28861 2.12957 5.28861C2.01968 5.28861 1.91566 5.2716 1.81749 5.23729C1.71933 5.20299 1.63873 5.13439 1.57654 5.03148C1.51407 4.92857 1.48311 4.77325 1.48311 4.56524V0H0.735144V4.76474ZM0 1.14735V1.7711H2.52251V1.14735H0Z" fill="black"/>
</svg>
