<svg width="99" height="30" viewBox="0 0 99 30" fill="none" xmlns="http://www.w3.org/2000/svg">
<g clip-path="url(#clip0_2_2378)">
<path d="M20.233 21.254C18.165 21.254 16.411 20.029 15.692 18.084C14.928 16.057 15.197 13.226 16.366 10.268C16.816 9.211 17.311 8.24 17.895 7.352C20.008 8.409 22.301 9.254 24.865 9.254C27.877 9.254 30.89 7.774 30.934 4.521C30.979 2.24 28.596 0 25.224 0C22.346 0 19.469 1.268 17.176 3.507C14.208 1.817 11.016 0 7.464 0C3.642 0 0 2.62 0 6.507C0 9.55 2.473 12.127 5.8 12.127C8.768 12.127 11.196 10.014 11.196 7.183C11.196 6.043 10.432 4.901 9.532 4.394L7.644 6.296C7.914 6.55 8.049 7.014 8.049 7.31C8.049 8.324 6.924 9.17 5.71 9.17C4.226 9.17 3.148 7.986 3.148 6.507C3.148 4.267 5.395 2.957 7.464 2.957C10.116 2.957 12.59 4.394 15.197 5.873C14.3583 7.10668 13.6786 8.44121 13.174 9.845C11.69 13.944 11.735 17.409 13.084 19.986C14.658 22.986 17.715 24.001 20.098 24.001C23.965 24.001 28.102 21.761 30.26 16.691L27.652 16.099C26.708 18.592 23.785 21.254 20.233 21.254ZM25.044 2.746C27.023 2.746 27.967 3.718 27.967 4.606C27.967 5.704 26.707 6.465 24.909 6.465C23.246 6.465 21.627 5.831 19.919 4.985C21.492 3.549 23.335 2.746 25.044 2.746Z" fill="#5653FE"/>
<path opacity="0.51" d="M17.174 3.507C14.207 1.817 11.014 0 7.46204 0V2.958C10.115 2.958 12.588 4.394 15.196 5.873C15.807 5.019 16.496 4.224 17.174 3.507Z" fill="url(#paint0_linear_2_2378)"/>
<path opacity="0.51" d="M27.967 4.60648C27.967 5.70448 26.708 6.46548 24.91 6.46548C23.246 6.46548 21.627 5.83148 19.919 4.98548C19.223 5.64148 18.562 6.40648 17.895 7.35348C20.009 8.40948 22.302 9.25448 24.865 9.25448C27.877 9.25448 30.89 7.77448 30.935 4.52148L27.967 4.60648Z" fill="url(#paint1_linear_2_2378)"/>
<path d="M41.19 16.0987C40.74 17.5787 39.751 18.1277 38.852 18.1277C38.717 18.1277 38.627 18.1277 38.492 18.0847C39.751 14.0287 38.627 10.7747 35.57 9.97173C35.21 9.88773 34.715 9.80273 34.4 9.80273C31.343 9.80273 28.735 11.9577 27.521 15.6347C26.172 19.8177 27.476 23.0707 30.579 23.8747C30.983 23.9587 31.388 24.0007 31.793 24.0007C33.771 24.0007 35.884 22.8597 37.323 20.6207C37.728 20.7467 38.177 20.7887 38.807 20.7887C40.471 20.7887 42.718 20.0707 43.843 16.6907L41.19 16.0987ZM36.064 16.0147C34.85 16.3097 34.086 18.3807 34.895 19.1417C33.905 20.6617 32.602 21.4657 31.568 21.2967C29.994 21.0007 29.32 19.0987 30.398 16.1837C31.343 13.6487 33.367 12.0847 34.85 12.5917C35.84 12.9297 36.379 14.1557 36.064 16.0147Z" fill="#5653FE"/>
<path opacity="0.51" d="M34.85 12.5917C35.84 12.9297 36.379 14.1557 36.064 16.0147C36.038 16.8497 37.011 17.8247 38.492 18.0847C39.752 14.0287 38.627 10.7747 35.57 9.97173C35.21 9.88773 34.715 9.80273 34.4 9.80273L34.85 12.5927V12.5917Z" fill="url(#paint2_linear_2_2378)"/>
<path opacity="0.51" d="M34.896 19.1406C33.906 20.6626 32.602 21.4656 31.568 21.2966L30.579 23.8736C30.984 23.9576 31.389 24.0006 31.793 24.0006C33.771 24.0006 35.885 22.8596 37.323 20.6206C36.086 20.3086 35.215 19.6006 34.896 19.1406Z" fill="url(#paint3_linear_2_2378)"/>
<path d="M48.277 21.2536C46.793 22.9436 45.174 24.0006 43.42 24.0006C40.633 24.0006 39.464 21.5916 40.678 17.4506L42.791 10.1406H45.804L43.6 17.8306C43.106 19.6056 42.88 21.0426 43.51 21.3386C44.185 21.6346 45.489 20.9166 46.883 19.1416C48.187 17.4936 49.266 15.4656 50.12 12.9296L50.93 10.1406H53.942L51.424 18.9726C51.064 20.1976 50.884 21.2126 51.469 21.4226C52.279 21.7186 53.942 19.9026 55.291 16.0986L57.943 16.6906C56.415 20.8736 54.481 24.0006 51.244 24.0006C49.626 24.0006 48.412 22.6906 48.277 21.2536Z" fill="#5653FE"/>
<path opacity="0.51" d="M48.277 21.2537C46.793 22.9437 45.174 24.0007 43.42 24.0007C40.633 24.0007 39.464 21.5917 40.678 17.4507L43.6 17.8307C43.106 19.6057 42.88 21.0427 43.51 21.3387C44.185 21.6347 45.489 20.9167 46.883 19.1417C48.187 17.4937 49.266 15.4647 50.12 12.9297C49.54 15.0417 48.036 19.1347 48.277 21.2537Z" fill="url(#paint4_linear_2_2378)"/>
<path d="M57.832 20.4931C58.012 17.4501 60.574 15.4231 61.519 13.3521L58.911 12.5491C58.866 13.4361 58.281 15.7191 57.831 16.9431L55.224 16.3091C55.719 15.2531 56.303 12.5911 56.303 11.6621C55.719 11.1971 55.359 9.88713 56.348 9.16813C57.158 8.57813 58.417 8.87313 59.001 9.71813C59.81 10.0561 61.564 10.5211 63.317 11.0701C64.261 11.3661 65.026 11.5771 65.296 12.2101C65.566 12.8451 64.891 13.7741 63.452 15.7181C62.418 17.1121 60.754 19.1831 60.8 20.4501C60.8 21.0421 61.204 21.3801 61.744 21.3801C62.867 21.3801 64.936 20.0281 66.374 16.0981L69.028 16.6901C67.228 21.5071 64.71 24.0001 61.564 24.0001C59.406 24.0001 57.697 22.4791 57.832 20.4931Z" fill="#5653FE"/>
<path opacity="0.51" d="M58.911 12.5491C58.866 13.4361 58.281 15.7191 57.831 16.9431L55.224 16.3091C55.719 15.2531 56.303 12.5911 56.303 11.6621C56.76 12.0311 58.085 12.2691 58.911 12.5491Z" fill="url(#paint5_linear_2_2378)"/>
<path opacity="0.51" d="M57.8311 20.4926C58.0111 17.4496 60.5741 15.4226 61.5181 13.3516C62.8041 13.7286 64.2111 14.3206 64.2831 14.5816C64.0431 14.9176 63.7661 15.2936 63.4521 15.7176C62.4171 17.1116 60.7541 19.1826 60.7991 20.4496L57.8311 20.4926Z" fill="url(#paint6_linear_2_2378)"/>
<path d="M77.755 16.6907L75.102 16.0987C74.518 17.7467 73.438 18.9297 71.955 19.9017C70.156 16.8177 68.043 14.9157 68.537 13.4797C68.807 12.5917 69.752 12.2537 70.517 12.5077C71.191 12.7187 71.415 13.4377 71.415 13.6477L73.663 12.8457C73.618 12.3807 73.393 11.7047 72.989 11.1557C72.314 10.2677 71.191 9.80273 69.977 9.80273C67.773 9.80273 66.289 11.0287 65.795 12.8027C64.895 16.0987 67.998 18.5927 69.527 21.2127C68.807 21.5497 67.997 21.8877 67.189 22.2257C63.232 23.8737 62.333 25.6907 62.693 27.2957C63.053 28.8177 64.626 30.0007 66.784 30.0007C70.516 30.0007 73.933 26.6207 72.989 22.3947C74.787 21.2117 76.676 19.7747 77.755 16.6907ZM67.234 27.3807C66.334 27.5507 65.66 27.3387 65.57 26.8737C65.48 26.4937 65.66 25.8597 67.414 25.0147C68.403 24.5497 69.347 24.1697 70.291 23.7887C70.246 25.9867 68.178 27.2117 67.234 27.3807Z" fill="#5653FE"/>
<path opacity="0.51" d="M71.954 19.9007C70.156 16.8167 68.042 14.9147 68.537 13.4777L65.794 12.8027C64.894 16.0977 67.997 18.5907 69.526 21.2107C70.361 20.8387 71.577 20.1817 71.954 19.9007Z" fill="url(#paint7_linear_2_2378)"/>
<path opacity="0.51" d="M70.2909 23.7895C70.2459 25.9865 68.1769 27.2115 67.2339 27.3805L66.7839 30.0005C70.5159 30.0005 73.9329 26.6205 72.9889 22.3945C72.3989 22.8335 71.0919 23.4785 70.2909 23.7895Z" fill="url(#paint8_linear_2_2378)"/>
<path d="M74.393 22.3523C73.989 21.5073 73.853 20.0703 74.438 18.0843L76.731 10.1413H79.744L77.226 18.9713C76.866 20.1973 76.686 21.2113 77.27 21.4223C78.08 21.7183 79.744 19.9023 81.093 16.0993L83.745 16.6903C82.216 20.8733 80.283 24.0003 77.046 24.0003C75.742 24.0003 74.753 23.1133 74.393 22.3523ZM79.069 5.07031C80.103 5.07031 80.733 5.74631 80.733 6.63331C80.733 7.52131 80.013 8.23931 79.069 8.23931C78.125 8.23931 77.361 7.52131 77.361 6.63331C77.361 5.74631 78.125 5.07031 79.069 5.07031Z" fill="#5653FE"/>
<path d="M91.516 19.2676C90.256 21.8876 88.098 24.0006 85.176 24.0006C81.039 24.0006 80.095 19.6486 80.769 16.6906C81.444 13.7746 82.613 11.5776 83.602 10.1406H86.704C85.58 11.8306 84.321 14.4086 83.782 16.6056C83.152 19.1416 83.512 21.2116 85.041 21.4226C86.839 21.6766 88.682 19.6486 89.402 16.2256C89.717 14.7046 89.852 12.8456 89.717 11.1976L92.549 10.1406C92.549 12.8456 92.369 17.7466 94.573 17.7046C95.383 17.7046 95.966 16.9866 96.237 16.0986L98.889 16.6906C97.675 19.9866 95.697 20.4086 94.393 20.4086C93.359 20.4086 91.875 19.7316 91.516 19.2676Z" fill="#5653FE"/>
<path opacity="0.51" d="M91.516 19.2679C90.256 21.8879 88.098 24.0009 85.176 24.0009L85.041 21.4229C86.839 21.6769 88.683 19.6489 89.402 16.2259C89.582 15.3539 89.704 14.3699 89.749 13.3789C89.776 14.4659 89.538 17.5339 91.516 19.2679Z" fill="url(#paint9_linear_2_2378)"/>
</g>
<defs>
<linearGradient id="paint0_linear_2_2378" x1="18.495" y1="6.66" x2="12.739" y2="3.037" gradientUnits="userSpaceOnUse">
<stop offset="0.15"/>
<stop offset="0.826" stop-opacity="0"/>
</linearGradient>
<linearGradient id="paint1_linear_2_2378" x1="17.352" y1="1.21048" x2="25.412" y2="7.31848" gradientUnits="userSpaceOnUse">
<stop offset="0.226"/>
<stop offset="0.629" stop-opacity="0"/>
</linearGradient>
<linearGradient id="paint2_linear_2_2378" x1="34.09" y1="18.0667" x2="36.058" y2="14.1687" gradientUnits="userSpaceOnUse">
<stop/>
<stop offset="1" stop-opacity="0"/>
</linearGradient>
<linearGradient id="paint3_linear_2_2378" x1="36.758" y1="17.8996" x2="34.283" y2="21.6306" gradientUnits="userSpaceOnUse">
<stop/>
<stop offset="1" stop-opacity="0"/>
</linearGradient>
<linearGradient id="paint4_linear_2_2378" x1="51.856" y1="17.7537" x2="45.737" y2="18.7537" gradientUnits="userSpaceOnUse">
<stop offset="0.215"/>
<stop offset="1" stop-opacity="0"/>
</linearGradient>
<linearGradient id="paint5_linear_2_2378" x1="58.38" y1="9.48311" x2="57.042" y2="15.2201" gradientUnits="userSpaceOnUse">
<stop offset="0.203"/>
<stop offset="1" stop-opacity="0"/>
</linearGradient>
<linearGradient id="paint6_linear_2_2378" x1="63.8661" y1="12.5616" x2="61.6231" y2="16.5566" gradientUnits="userSpaceOnUse">
<stop offset="0.056"/>
<stop offset="1" stop-opacity="0"/>
</linearGradient>
<linearGradient id="paint7_linear_2_2378" x1="72.648" y1="22.7347" x2="69.804" y2="18.0017" gradientUnits="userSpaceOnUse">
<stop offset="0.14"/>
<stop offset="1" stop-opacity="0"/>
</linearGradient>
<linearGradient id="paint8_linear_2_2378" x1="67.7259" y1="22.9715" x2="69.7659" y2="26.4215" gradientUnits="userSpaceOnUse">
<stop offset="0.151"/>
<stop offset="1" stop-opacity="0"/>
</linearGradient>
<linearGradient id="paint9_linear_2_2378" x1="93.117" y1="15.0429" x2="86.856" y2="20.6189" gradientUnits="userSpaceOnUse">
<stop/>
<stop offset="1" stop-opacity="0"/>
</linearGradient>
<clipPath id="clip0_2_2378">
<rect width="99" height="30" fill="white"/>
</clipPath>
</defs>
</svg>
