<svg width="4" height="5" viewBox="0 0 4 5" fill="none" xmlns="http://www.w3.org/2000/svg">
<path d="M1.25294 3.66156C1.05748 3.50879 0.912841 3.30824 0.819028 3.05943C0.725215 2.81061 0.678182 2.54115 0.678182 2.25078C0.678182 1.96041 0.725215 1.68995 0.819028 1.43915C0.912841 1.18859 1.05748 0.985804 1.25294 0.831291C1.4484 0.676776 1.69748 0.599395 2.00015 0.599395C2.30283 0.599395 2.55165 0.676776 2.74711 0.831291C2.94257 0.985804 3.08721 1.18859 3.18103 1.43915C3.27484 1.68995 3.32187 1.96041 3.32187 2.25078C3.32187 2.54115 3.27484 2.81061 3.18103 3.05943C3.08721 3.30824 2.94257 3.50879 2.74711 3.66156C2.55165 3.81433 2.30283 3.89072 2.00015 3.89072C1.69748 3.89072 1.4484 3.81433 1.25294 3.66156ZM3.04751 4.2102C3.34741 4.02359 3.5808 3.76258 3.74845 3.42693C3.9161 3.09153 4.00005 2.69939 4.00005 2.25078C4.00005 1.79843 3.9161 1.40332 3.74845 1.06592C3.5808 0.72853 3.34741 0.466528 3.04751 0.279917C2.74761 0.0933056 2.39866 0 2.00015 0C1.60164 0 1.25269 0.0933056 0.952791 0.279917C0.652894 0.466528 0.419253 0.72853 0.251598 1.06592C0.0839509 1.40332 0 1.79843 0 2.25078C0 2.69939 0.0839509 3.09153 0.251598 3.42693C0.419253 3.76258 0.652894 4.02359 0.952791 4.2102C1.25269 4.39681 1.60164 4.49011 2.00015 4.49011C2.39866 4.49011 2.74761 4.39681 3.04751 4.2102Z" fill="black"/>
</svg>
