<svg width="4" height="5" viewBox="0 0 4 5" fill="none" xmlns="http://www.w3.org/2000/svg">
<path d="M2.95703 3.67938C2.82082 3.87873 2.65328 4.02634 2.45414 4.12276C2.25499 4.21919 2.05958 4.26726 1.8679 4.26726C1.54777 4.26726 1.28512 4.16037 1.07936 3.94603C0.873605 3.73198 0.770726 3.44497 0.770726 3.085V0H0V3.13618C0 3.55609 0.069834 3.9039 0.209204 4.17903C0.348578 4.45445 0.539966 4.66002 0.783943 4.79603C1.02763 4.93204 1.30638 4.99991 1.6199 4.99991C1.99865 4.99991 2.31217 4.91282 2.56046 4.73807C2.80875 4.5636 2.99152 4.35067 3.10905 4.10014H3.16106V4.93572H3.93179V0H3.16106V2.91789C3.16106 3.22639 3.09296 3.48003 2.95703 3.67938Z" fill="black"/>
</svg>
