<svg width="4" height="6" viewBox="0 0 4 6" fill="none" xmlns="http://www.w3.org/2000/svg">
<path d="M0.806586 1.36918C0.901966 1.12625 1.0429 0.936557 1.22988 0.800605C1.41662 0.664653 1.6474 0.596553 1.92196 0.596553C2.20785 0.596553 2.44568 0.668368 2.63543 0.811996C2.82519 0.955624 2.96712 1.14952 3.0615 1.39443C3.15587 1.63935 3.20319 1.91373 3.20319 2.21757C3.20319 2.52538 3.15487 2.80422 3.05873 3.05458C2.96234 3.30494 2.8194 3.50379 2.62965 3.65113C2.43989 3.79848 2.20408 3.87227 1.92196 3.87227C1.65117 3.87227 1.42216 3.80219 1.23542 3.66253C1.04844 3.52286 0.906497 3.32871 0.809354 3.08009C0.712211 2.83146 0.663638 2.54396 0.663638 2.21757C0.663638 1.89491 0.711205 1.61211 0.806586 1.36918ZM0.674966 5.99946V3.71453H0.732092C0.781671 3.79328 0.852137 3.89233 0.943742 4.01144C1.03535 4.13056 1.16596 4.23654 1.33559 4.32941C1.50521 4.42227 1.7312 4.46883 2.01332 4.46883C2.37949 4.46883 2.70263 4.37745 2.98298 4.19445C3.26333 4.01144 3.48229 3.75242 3.64058 3.41761C3.79888 3.08281 3.8779 2.68659 3.8779 2.22872C3.8779 1.7748 3.79888 1.38081 3.64058 1.04675C3.48229 0.712942 3.26208 0.454906 2.97996 0.272894C2.69785 0.0908818 2.37194 0 2.00199 0C1.7161 0 1.4896 0.0465554 1.32275 0.139419C1.1559 0.232282 1.02805 0.337279 0.939465 0.454411C0.850877 0.57179 0.781671 0.667872 0.732092 0.742906H0.652064V0.056213H0V5.99946H0.674966Z" fill="black"/>
</svg>
