<svg width="4" height="5" viewBox="0 0 4 5" fill="none" xmlns="http://www.w3.org/2000/svg">
<path d="M0.937107 1.29819C1.04804 1.09686 1.20034 0.943597 1.39287 0.838691C1.58542 0.733783 1.80468 0.681189 2.05066 0.681189C2.40758 0.681189 2.68862 0.790054 2.89323 1.0075C3.09784 1.22495 3.20014 1.52751 3.20014 1.91519V4.99991H3.97087V1.86373C3.97087 1.44381 3.90017 1.09658 3.75879 0.821159C3.61712 0.546025 3.41883 0.34017 3.16422 0.204159C2.90961 0.0681469 2.61248 0 2.2728 0C1.89405 0 1.58484 0.0766302 1.34546 0.229891C1.10608 0.383151 0.927338 0.585047 0.809805 0.83558H0.744575V0.0641882H0V4.99991H0.770718V2.03084C0.770718 1.74383 0.826187 1.49952 0.937107 1.29819Z" fill="black"/>
</svg>
