<svg width="6" height="5" viewBox="0 0 6 5" fill="none" xmlns="http://www.w3.org/2000/svg">
<path d="M0.702171 4.55689V1.74549C0.702171 1.52489 0.750104 1.33006 0.846481 1.16126C0.942602 0.992453 1.06989 0.859989 1.22756 0.764377C1.38522 0.668766 1.55546 0.620831 1.73802 0.620831C2.00385 0.620831 2.22123 0.699433 2.3899 0.856639C2.55857 1.01384 2.64264 1.22027 2.64264 1.47592V4.55689H3.35712V1.62823C3.35712 1.33727 3.44538 1.09683 3.62191 0.906377C3.79844 0.715927 4.04751 0.620831 4.36886 0.620831C4.61899 0.620831 4.8361 0.692217 5.02075 0.834733C5.20539 0.977248 5.29759 1.21434 5.29759 1.54628V4.55689H6.00002V1.54628C6.00002 1.01719 5.86986 0.627274 5.61004 0.376261C5.34997 0.125506 5.01577 0 4.60694 0C4.27955 0 3.99905 0.068809 3.76491 0.206428C3.53077 0.344047 3.35502 0.529343 3.23795 0.761542H3.19028C3.07714 0.521354 2.92 0.334511 2.71859 0.200758C2.51718 0.067005 2.26575 0 1.9643 0C1.66678 0 1.41168 0.067005 1.19927 0.200758C0.986865 0.334511 0.833389 0.521354 0.738051 0.761542H0.678337V0.0585007H0V4.55689H0.702171Z" fill="black"/>
</svg>
