<svg width="4" height="5" viewBox="0 0 4 5" fill="none" xmlns="http://www.w3.org/2000/svg">
<path d="M2.94972 4.48158C3.19628 4.38756 3.40325 4.25563 3.57091 4.08579C3.73857 3.91594 3.85781 3.71868 3.92889 3.4935L3.25433 3.307C3.19523 3.46225 3.1114 3.59187 3.00284 3.69563C2.89427 3.79938 2.76566 3.877 2.61674 3.92849C2.46783 3.97998 2.30172 4.00586 2.11818 4.00586C1.83622 4.00586 1.58863 3.94514 1.37567 3.82372C1.16271 3.70254 0.996345 3.52501 0.877105 3.29112C0.757864 3.05723 0.698251 2.77134 0.698251 2.43369V2.0379C0.698251 1.79145 0.752397 1.56038 0.860968 1.34494C0.96953 1.12949 1.1247 0.95452 1.32698 0.819514C1.52901 0.684764 1.76931 0.617133 2.04736 0.617133C2.2999 0.617133 2.51911 0.674517 2.70552 0.789029C2.89193 0.90354 3.0359 1.05955 3.13744 1.25758C3.23897 1.4556 3.28974 1.68079 3.28974 1.93312H0.497001V2.52694H3.99996V2.23567C3.99996 1.81835 3.94372 1.46739 3.83126 1.18201C3.71879 0.896624 3.56778 0.667088 3.37851 0.493399C3.18925 0.31971 2.97914 0.194183 2.74848 0.116561C2.51781 0.0389387 2.28402 0 2.04736 0C1.63706 0 1.27856 0.0986282 0.971874 0.29563C0.665184 0.492631 0.426448 0.766229 0.255921 1.11642C0.0853944 1.46688 0 1.87087 0 2.32892C0 2.78696 0.0853944 3.18814 0.255921 3.5327C0.426448 3.87726 0.670133 4.14496 0.986716 4.33607C1.30329 4.52718 1.68027 4.62299 2.11818 4.62299C2.42591 4.62299 2.70318 4.5756 2.94972 4.48158Z" fill="black"/>
</svg>
