<svg width="5" height="6" viewBox="0 0 5 6" fill="none" xmlns="http://www.w3.org/2000/svg">
<path d="M0.738267 0.64447H1.91719C2.39347 0.64447 2.79142 0.73882 3.11104 0.927263C3.43066 1.11571 3.67064 1.38509 3.83149 1.73569C3.99235 2.08628 4.07278 2.50364 4.07278 2.98802C4.07278 3.47627 3.9913 3.89724 3.82861 4.25066C3.66592 4.60409 3.41861 4.87657 3.0872 5.06785C2.75579 5.25939 2.33793 5.35503 1.83388 5.35503H0.738267V0.64447ZM3.45948 5.63782C3.89201 5.39653 4.22132 5.05084 4.44768 4.60074C4.67403 4.15064 4.7872 3.6129 4.7872 2.98802C4.7872 2.36701 4.67508 1.83339 4.45082 1.38716C4.22656 0.940926 3.90406 0.598068 3.48332 0.358841C3.06257 0.119614 2.55616 0 1.96487 0H0V5.9995H1.88156C2.50088 5.9995 3.02668 5.87911 3.45948 5.63782Z" fill="black"/>
</svg>
