<svg width="4" height="5" viewBox="0 0 4 5" fill="none" xmlns="http://www.w3.org/2000/svg">
<path d="M3.06008 4.61587C3.32355 4.48771 3.53584 4.31426 3.69695 4.09524C3.85807 3.87622 3.9588 3.62923 3.99995 3.35479H3.27399C3.22877 3.52425 3.15296 3.66946 3.04627 3.7907C2.93958 3.91193 2.80933 4.00492 2.65553 4.0694C2.50173 4.13414 2.33033 4.16638 2.1416 4.16638C1.8543 4.16638 1.60464 4.09258 1.39235 3.94523C1.18006 3.79789 1.01597 3.59086 0.900071 3.32442C0.784184 3.05797 0.726232 2.74544 0.726232 2.386C0.726232 2.03483 0.784994 1.72842 0.903054 1.46704C1.02112 1.20566 1.18601 1.00289 1.3983 0.858482C1.6106 0.714069 1.85863 0.641863 2.1416 0.641863C2.46165 0.641863 2.71646 0.724194 2.90627 0.88859C3.09609 1.05325 3.21849 1.24163 3.27399 1.45345H3.99995C3.9588 1.16276 3.85346 0.908307 3.68314 0.690356C3.51282 0.472404 3.29458 0.302946 3.02785 0.181714C2.76114 0.0604825 2.46139 0 2.12914 0C1.70239 0 1.3298 0.10258 1.01082 0.307476C0.691847 0.512371 0.443536 0.795867 0.266176 1.15823C0.0888164 1.52059 0 1.93785 0 2.41025C0 2.87466 0.0861142 3.28712 0.258326 3.64841C0.430546 4.00971 0.676948 4.29347 0.997011 4.49944C1.31707 4.7054 1.6986 4.80824 2.1416 4.80824C2.49036 4.80824 2.79634 4.74403 3.06008 4.61587Z" fill="black"/>
</svg>
