<svg width="3" height="5" viewBox="0 0 3 5" fill="none" xmlns="http://www.w3.org/2000/svg">
<path d="M0.768634 5.0009V1.88503C0.768634 1.66273 0.823393 1.4647 0.933197 1.29035C1.04272 1.11629 1.19266 0.979191 1.38274 0.87989C1.57282 0.780588 1.78927 0.730938 2.03268 0.730938C2.13474 0.730938 2.23193 0.73799 2.32425 0.751813C2.41657 0.765637 2.47591 0.77551 2.502 0.781999V0.0126948C2.45842 0.00846285 2.3942 0.00535977 2.30963 0.00310308C2.22505 0.00112834 2.15453 0 2.09805 0C1.79845 0 1.52895 0.0758864 1.29013 0.22766C1.05132 0.379433 0.885893 0.576907 0.794723 0.820647H0.742544V0.0767328H0V5.0009H0.768634Z" fill="black"/>
</svg>
