<svg width="3" height="6" viewBox="0 0 3 6" fill="none" xmlns="http://www.w3.org/2000/svg">
<path d="M1.37661 6.00051V1.26517C1.37661 1.05238 1.42567 0.891062 1.52328 0.780972C1.6209 0.670883 1.78059 0.615714 2.00235 0.615714C2.09896 0.615714 2.1773 0.624334 2.23712 0.641082C2.29694 0.657829 2.34375 0.671868 2.37779 0.682951L2.57126 0.11206C2.51995 0.0896481 2.44236 0.0652656 2.33799 0.0391595C2.23362 0.013053 2.09921 0 1.93427 0C1.72577 0 1.52754 0.0411297 1.33982 0.123143C1.1521 0.205156 0.999421 0.328299 0.881783 0.492572C0.764145 0.656844 0.705326 0.862 0.705326 1.10829V6.00051H1.37661ZM0 1.70159V2.2614H2.35501V1.70159H0Z" fill="black"/>
</svg>
