<svg width="4" height="5" viewBox="0 0 4 5" fill="none" xmlns="http://www.w3.org/2000/svg">
<path d="M2.94967 4.48188C3.19623 4.38786 3.40347 4.25592 3.57115 4.08606C3.73883 3.9162 3.85807 3.71893 3.92915 3.49373L3.25455 3.30722C3.19545 3.46248 3.11161 3.59211 3.00304 3.69587C2.89447 3.79963 2.76584 3.87726 2.61692 3.92875C2.46799 3.98025 2.30188 4.00612 2.11832 4.00612C1.83635 4.00612 1.58874 3.94541 1.37576 3.82397C1.16279 3.70279 0.996412 3.52525 0.877163 3.29134C0.757922 3.05743 0.698035 2.77152 0.698035 2.43385V2.03803C0.698035 1.79157 0.752193 1.56049 0.860763 1.34502C0.969333 1.12956 1.12451 0.954583 1.32682 0.819568C1.52886 0.68481 1.76918 0.617174 2.04724 0.617174C2.2998 0.617174 2.51928 0.674562 2.7057 0.789081C2.89212 0.903601 3.03611 1.05962 3.13764 1.25766C3.23919 1.4557 3.28995 1.6809 3.28995 1.93325H0.497034V2.52711H3.99997V2.23582C3.99997 1.81847 3.94399 1.46749 3.83152 1.18208C3.71904 0.896683 3.56803 0.667132 3.37874 0.493432C3.18946 0.319731 2.97908 0.194196 2.7484 0.116569C2.51772 0.0389413 2.28391 0 2.04724 0C1.6369 0 1.27865 0.0986347 0.971939 0.295649C0.665228 0.492663 0.426476 0.76628 0.255938 1.1165C0.0854001 1.46697 0 1.87099 0 2.32907C0 2.78715 0.0854001 3.18835 0.255938 3.53293C0.426476 3.87751 0.669916 4.14524 0.986519 4.33636C1.30312 4.52748 1.68039 4.6233 2.11832 4.6233C2.42607 4.6233 2.70309 4.5759 2.94967 4.48188Z" fill="black"/>
</svg>
