<svg width="4" height="5" viewBox="0 0 4 5" fill="none" xmlns="http://www.w3.org/2000/svg">
<path d="M1.25277 3.6618C1.05729 3.50901 0.912898 3.30846 0.819079 3.05963C0.72526 2.81079 0.678223 2.54131 0.678223 2.25092C0.678223 1.96054 0.72526 1.69006 0.819079 1.43924C0.912898 1.18867 1.05729 0.985868 1.25277 0.831344C1.44824 0.67682 1.69733 0.599434 2.00003 0.599434C2.30272 0.599434 2.55181 0.67682 2.74729 0.831344C2.94276 0.985868 3.08716 1.18867 3.18098 1.43924C3.27479 1.69006 3.32183 1.96054 3.32183 2.25092C3.32183 2.54131 3.27479 2.81079 3.18098 3.05963C3.08716 3.30846 2.94276 3.50901 2.74729 3.6618C2.55181 3.81458 2.30272 3.89097 2.00003 3.89097C1.69733 3.89097 1.44824 3.81458 1.25277 3.6618ZM3.04746 4.21047C3.34737 4.02385 3.58103 3.76282 3.74869 3.42715C3.91635 3.09172 4.00005 2.69957 4.00005 2.25092C4.00005 1.79855 3.91635 1.40341 3.74869 1.06599C3.58103 0.728577 3.34737 0.466558 3.04746 0.279935C2.74754 0.0933116 2.39857 0 2.00003 0C1.60149 0 1.25251 0.0933116 0.9526 0.279935C0.652683 0.466558 0.419021 0.728577 0.251363 1.06599C0.0837035 1.40341 0 1.79855 0 2.25092C0 2.69957 0.0837035 3.09172 0.251363 3.42715C0.419021 3.76282 0.652683 4.02385 0.9526 4.21047C1.25251 4.39709 1.60149 4.4904 2.00003 4.4904C2.39857 4.4904 2.74754 4.39709 3.04746 4.21047Z" fill="black"/>
</svg>
