<svg width="4" height="5" viewBox="0 0 4 5" fill="none" xmlns="http://www.w3.org/2000/svg">
<path d="M1.04555 4.13845C0.850876 4.0077 0.753401 3.81339 0.753401 3.55577C0.753401 3.36726 0.804807 3.21799 0.908181 3.10798C1.01128 2.99797 1.1478 2.9156 1.31691 2.86004C1.48601 2.80448 1.66832 2.76412 1.86412 2.73897C1.94502 2.72847 2.05092 2.71548 2.18183 2.69972C2.31273 2.68397 2.44785 2.66545 2.58718 2.64333C2.72651 2.62122 2.85011 2.59524 2.9577 2.56483C3.06501 2.53443 3.13467 2.50015 3.1667 2.46256V3.14115C3.1667 3.3421 3.11389 3.53366 3.00855 3.71581C2.90321 3.89797 2.74786 4.04668 2.54252 4.16194C2.33717 4.27721 2.08576 4.3347 1.78771 4.3347C1.4877 4.3347 1.24022 4.26947 1.04555 4.13845ZM2.39729 4.87509C2.59533 4.79133 2.75376 4.68961 2.87287 4.5702C2.99197 4.45079 3.07709 4.33885 3.12821 4.23409H3.1667V4.88753H3.9201V1.70878C3.9201 1.32567 3.85633 1.01996 3.72852 0.791645C3.6007 0.563328 3.44087 0.392782 3.24816 0.279729C3.05546 0.166676 2.85657 0.0917686 2.65123 0.0550059C2.44588 0.0185195 2.26442 0 2.10683 0C1.8599 0 1.60933 0.0328929 1.35511 0.0989556C1.10089 0.165018 0.866607 0.280005 0.652834 0.444471C0.439061 0.608936 0.268267 0.837529 0.140455 1.1308L0.855651 1.38206C0.938519 1.20626 1.08235 1.04097 1.28657 0.885902C1.49079 0.730834 1.77282 0.653439 2.13239 0.653439C2.47931 0.653439 2.73831 0.739403 2.90966 0.911055C3.08102 1.08271 3.1667 1.32346 3.1667 1.63332V1.65847C3.1667 1.77788 3.12372 1.86164 3.03748 1.90973C2.95124 1.95783 2.815 1.9921 2.62875 2.01201C2.44251 2.03191 2.20065 2.06065 1.9026 2.09825C1.67479 2.12755 1.44865 2.1668 1.2242 2.216C0.999758 2.2652 0.794974 2.339 0.609855 2.4374C0.424734 2.53581 0.276697 2.67153 0.166017 2.84428C0.0553389 3.01704 0 3.24149 0 3.5179C0 3.83191 0.0747218 4.09975 0.223604 4.3206C0.372486 4.54146 0.573338 4.71007 0.826716 4.82616C1.07982 4.94225 1.36213 5.00058 1.67282 5.00058C1.95794 5.00058 2.19924 4.95884 2.39729 4.87509Z" fill="black"/>
</svg>
