<svg width="25" height="24" viewBox="0 0 25 24" fill="none" xmlns="http://www.w3.org/2000/svg">
<g clip-path="url(#clip0_2_2450)">
<path d="M20.512 23.0098C21.3076 23.0098 22.0707 22.6937 22.6333 22.1311C23.1959 21.5685 23.512 20.8054 23.512 20.0098C23.512 19.2141 23.1959 18.4511 22.6333 17.8884C22.0707 17.3258 21.3076 17.0098 20.512 17.0098C19.7163 17.0098 18.9533 17.3258 18.3906 17.8884C17.828 18.4511 17.512 19.2141 17.512 20.0098C17.512 20.8054 17.828 21.5685 18.3906 22.1311C18.9533 22.6937 19.7163 23.0098 20.512 23.0098Z" fill="#5653FE"/>
<path d="M18.5 3.00001H7.33C7.0941 2.33279 6.62993 1.77045 6.01952 1.41237C5.40911 1.0543 4.69176 0.923539 3.99427 1.04321C3.29677 1.16288 2.66404 1.52528 2.20789 2.06635C1.75175 2.60741 1.50157 3.29232 1.50157 4.00001C1.50157 4.70769 1.75175 5.3926 2.20789 5.93367C2.66404 6.47474 3.29677 6.83713 3.99427 6.9568C4.69176 7.07647 5.40911 6.94571 6.01952 6.58764C6.62993 6.22956 7.0941 5.66722 7.33 5.00001H18.5C19.2956 5.00001 20.0587 5.31608 20.6213 5.87869C21.1839 6.4413 21.5 7.20436 21.5 8.00001C21.5 8.79566 21.1839 9.55872 20.6213 10.1213C20.0587 10.6839 19.2956 11 18.5 11H15.33C15.1198 10.4209 14.7364 9.92047 14.2318 9.56685C13.7273 9.21323 13.1261 9.02353 12.51 9.02353C11.8939 9.02353 11.2927 9.21323 10.7882 9.56685C10.2836 9.92047 9.9002 10.4209 9.69 11H6.5C5.17392 11 3.90215 11.5268 2.96447 12.4645C2.02678 13.4022 1.5 14.6739 1.5 16C1.5 17.3261 2.02678 18.5979 2.96447 19.5355C3.90215 20.4732 5.17392 21 6.5 21H12.5V24L16.5 20L12.5 16V19H6.5C5.70435 19 4.94129 18.6839 4.37868 18.1213C3.81607 17.5587 3.5 16.7957 3.5 16C3.5 15.2044 3.81607 14.4413 4.37868 13.8787C4.94129 13.3161 5.70435 13 6.5 13H9.7C9.91215 13.5758 10.2958 14.0727 10.7991 14.4237C11.3025 14.7746 11.9014 14.9628 12.515 14.9628C13.1286 14.9628 13.7275 14.7746 14.2309 14.4237C14.7342 14.0727 15.1178 13.5758 15.33 13H18.5C19.8261 13 21.0979 12.4732 22.0355 11.5355C22.9732 10.5979 23.5 9.32609 23.5 8.00001C23.5 6.67392 22.9732 5.40215 22.0355 4.46447C21.0979 3.52679 19.8261 3.00001 18.5 3.00001Z" fill="#5653FE"/>
</g>
<defs>
<clipPath id="clip0_2_2450">
<rect width="25" height="24" fill="white"/>
</clipPath>
</defs>
</svg>
