<svg width="22" height="24" viewBox="0 0 22 24" fill="none" xmlns="http://www.w3.org/2000/svg">
<path d="M14.2 15.267V16.814C14.2 19.731 14.2 21.189 13.233 22.095C12.267 23.001 10.71 23.001 7.6 23.001C4.489 23.001 2.932 23.001 1.967 22.095C1 21.19 1 19.73 1 16.815V11.511C1 8.59397 1 7.13497 1.967 6.22897C2.607 5.62897 3.449 5.46297 4.3 5.41797M7.6 19.701H7.61" stroke="#5653FE" stroke-width="2" stroke-linecap="round" stroke-linejoin="round"/>
<path d="M14.202 2.65C11.884 1.35 10.489 1.099 8.70205 1C7.99005 1.129 7.76505 1.386 7.60205 2.1V8.7C7.59605 9.705 7.81905 10.082 8.70205 10.35C11.096 10.733 12.243 11.08 14.066 11.936C14.152 11.976 14.253 11.978 14.34 11.941C16.099 11.186 17.235 10.764 18.54 10.518C19.306 10.375 20.259 10.364 20.638 9.684C20.773 9.446 20.818 9.137 20.801 8.7V2.1C20.577 1.392 20.336 1.153 19.701 1C17.77 1.107 16.601 1.38 14.201 2.65H14.202ZM14.202 2.65V11.45" stroke="#5653FE" stroke-width="2" stroke-linecap="round" stroke-linejoin="round"/>
</svg>
