<svg width="25" height="24" viewBox="0 0 25 24" fill="none" xmlns="http://www.w3.org/2000/svg">
<path d="M15.773 8V9.625H11.136C10.316 9.625 9.53004 9.968 8.95104 10.577C8.36597 11.1992 8.04172 12.022 8.04504 12.876V16.126C8.04504 16.988 8.37104 17.815 8.95104 18.424C9.53104 19.034 10.317 19.376 11.136 19.376H18.864C19.684 19.376 20.47 19.034 21.049 18.424C21.629 17.814 21.954 16.988 21.954 16.126V12.876C21.9547 12.3082 21.8124 11.7493 21.54 11.251C21.2742 10.7621 20.8845 10.3518 20.41 10.061V8.276C22.21 8.946 23.5 10.752 23.5 12.874V16.124C23.5051 17.4047 23.0191 18.6387 22.142 19.572C21.7213 20.0203 21.2137 20.3781 20.6501 20.6236C20.0865 20.8691 19.4788 20.9972 18.864 21H11.136C10.5213 20.9972 9.91357 20.8691 9.34998 20.6236C8.78638 20.3781 8.27874 20.0203 7.85804 19.572C6.98097 18.6387 6.49497 17.4047 6.50004 16.124V12.876C6.50004 11.583 6.98804 10.342 7.85804 9.428C8.27874 8.97975 8.78638 8.62194 9.34998 8.37642C9.91357 8.1309 10.5213 8.00282 11.136 8H15.773Z" fill="#5653FE" stroke="#5653FE" stroke-width="0.8"/>
<path d="M9.22701 15V13.375H13.864C14.684 13.375 15.47 13.033 16.049 12.423C16.629 11.813 16.954 10.987 16.954 10.125V6.875C16.954 6.013 16.629 5.186 16.049 4.577C15.7686 4.2782 15.4302 4.03969 15.0545 3.87601C14.6789 3.71233 14.2738 3.62692 13.864 3.625H6.13601C5.31601 3.625 4.53001 3.967 3.95101 4.577C3.36619 5.19891 3.04195 6.02131 3.04501 6.875V10.125C3.04501 10.695 3.18801 11.255 3.46001 11.75C3.73001 12.244 4.12101 12.654 4.59001 12.94V14.724C3.67509 14.3788 2.89159 13.7552 2.35001 12.941C1.79353 12.1075 1.49764 11.1272 1.50001 10.125V6.875C1.50001 5.582 1.98801 4.342 2.85801 3.428C3.27871 2.97975 3.78636 2.62194 4.34995 2.37642C4.91355 2.1309 5.52127 2.00282 6.13601 2H13.864C15.094 2 16.273 2.514 17.142 3.428C18.0189 4.36099 18.5049 5.59459 18.5 6.875V10.125C18.5049 11.4054 18.0189 12.639 17.142 13.572C16.7213 14.0203 16.2137 14.3781 15.6501 14.6236C15.0865 14.8691 14.4788 14.9972 13.864 15H9.22701Z" fill="#5653FE" stroke="#5653FE" stroke-width="0.8"/>
</svg>
