<svg width="23" height="23" viewBox="0 0 23 23" fill="none" xmlns="http://www.w3.org/2000/svg">
<path d="M19.4369 22.0827C20.8973 22.0827 22.0826 20.8188 22.0826 19.2606C22.0826 17.7014 20.8973 16.4386 19.4369 16.4386C19.4369 14.8804 18.2516 13.6165 16.7912 13.6165M3.56287 22.0827C2.10246 22.0827 0.9172 20.8188 0.9172 19.2606C0.9172 17.7014 2.10246 16.4386 3.56287 16.4386C3.56287 14.8804 4.74813 13.6165 6.20854 13.6165M9.38334 14.6748V19.9661M13.6164 14.6748V16.7913M9.03059 6.96457V5.58882C9.03059 4.03669 9.67764 2.70126 10.6311 1.57446C11.001 1.13603 11.1874 0.917323 11.4999 0.917323C11.8123 0.917323 11.9968 1.13603 12.3687 1.57446C13.3211 2.70126 13.9692 4.03669 13.9692 5.58781V6.96457C13.9692 8.09843 13.9692 8.41994 14.6545 8.91682C15.2028 9.26958 15.7329 9.61024 15.7329 10.2926C15.7329 11.122 15.3802 11.5 14.6072 11.5H8.3926C7.62057 11.5 7.26681 11.122 7.26681 10.2936C7.26681 9.61024 7.79695 9.26958 8.34624 8.91682C9.03159 8.42095 9.03059 8.09843 9.03059 6.96457Z" stroke="#5653FE" stroke-width="1.82" stroke-linecap="round" stroke-linejoin="round"/>
</svg>
