<svg width="44" height="44" viewBox="0 0 44 44" fill="none" xmlns="http://www.w3.org/2000/svg">
<g clip-path="url(#clip0_2_2565)">
<path d="M44 22C44 9.84974 34.1503 0 22 0C9.84974 0 0 9.84974 0 22C0 34.1503 9.84974 44 22 44C34.1503 44 44 34.1503 44 22Z" fill="#EEEEFF"/>
<path d="M25.9901 13.772L28.4571 11.312C28.6591 11.1109 28.9325 10.998 29.2176 10.998C29.5026 10.998 29.7761 11.1109 29.9781 11.312L31.6851 13.013C31.785 13.1125 31.8643 13.2306 31.9184 13.3608C31.9725 13.491 32.0004 13.6306 32.0004 13.7715C32.0004 13.9125 31.9725 14.0521 31.9184 14.1822C31.8643 14.3124 31.785 14.4306 31.6851 14.53L29.2181 16.988M25.9901 13.772L19.8481 19.891C19.7483 19.9904 19.6691 20.1085 19.615 20.2386C19.561 20.3687 19.5331 20.5082 19.5331 20.649V22.349C19.5328 22.4902 19.5605 22.6301 19.6145 22.7605C19.6686 22.8909 19.7479 23.0094 19.8479 23.1091C19.9479 23.2087 20.0667 23.2876 20.1973 23.3411C20.328 23.3947 20.4679 23.4218 20.6091 23.421H22.3151C22.6011 23.421 22.8751 23.308 23.0761 23.107L29.2181 16.988M25.9901 13.772L29.2181 16.988M15.2281 23.421H14.1521C13.5821 23.421 13.0341 23.647 12.6301 24.049C12.4304 24.2479 12.2719 24.4842 12.1638 24.7444C12.0557 25.0047 12 25.2837 12 25.5655C12 25.8473 12.0557 26.1264 12.1638 26.3866C12.2719 26.6469 12.4304 26.8832 12.6301 27.082C13.0341 27.484 13.5811 27.71 14.1521 27.71H29.2181C29.7881 27.71 30.3361 27.936 30.7391 28.338C30.9388 28.5369 31.0973 28.7732 31.2054 29.0334C31.3135 29.2937 31.3692 29.5727 31.3692 29.8545C31.3692 30.1363 31.3135 30.4154 31.2054 30.6756C31.0973 30.9359 30.9388 31.1722 30.7391 31.371C30.3351 31.7732 29.7882 31.999 29.2181 31.999H24.9131" stroke="#5653FE" stroke-width="1.68" stroke-linecap="round" stroke-linejoin="round"/>
</g>
<defs>
<clipPath id="clip0_2_2565">
<rect width="44" height="44" fill="white"/>
</clipPath>
</defs>
</svg>
