<svg width="24" height="24" viewBox="0 0 24 24" fill="none" xmlns="http://www.w3.org/2000/svg">
<path d="M5.89 10.78V15.668C5.89 16.3165 6.1476 16.9383 6.60612 17.3969C7.06465 17.8554 7.68654 18.113 8.335 18.113H13.224M8.333 1H3.444C2.79581 1 2.17417 1.25749 1.71583 1.71583C1.25749 2.17417 1 2.79581 1 3.444V8.334C1 8.98219 1.25749 9.60383 1.71583 10.0622C2.17417 10.5205 2.79581 10.778 3.444 10.778H8.334C8.65503 10.778 8.97293 10.7148 9.26951 10.5919C9.5661 10.469 9.83556 10.2889 10.0625 10.0618C10.2895 9.83476 10.4695 9.56522 10.5922 9.26859C10.715 8.97195 10.7781 8.65403 10.778 8.333V3.444C10.778 3.12297 10.7148 2.80508 10.5919 2.50849C10.469 2.21191 10.2889 1.94244 10.0618 1.71548C9.83476 1.48852 9.56522 1.30851 9.26859 1.18575C8.97195 1.06299 8.65403 0.999869 8.333 1Z" stroke="#0F79F6" stroke-width="2" stroke-linecap="round" stroke-linejoin="round"/>
<path d="M20.556 13.2207H15.667C15.346 13.2207 15.0281 13.284 14.7315 13.4068C14.4349 13.5297 14.1655 13.7098 13.9385 13.9369C13.7115 14.1639 13.5315 14.4335 13.4088 14.7301C13.286 15.0268 13.2229 15.3447 13.223 15.6657V20.5547C13.2229 20.8757 13.286 21.1937 13.4088 21.4903C13.5315 21.7869 13.7115 22.0565 13.9385 22.2835C14.1655 22.5106 14.4349 22.6907 14.7315 22.8136C15.0281 22.9365 15.346 22.9997 15.667 22.9997H20.556C20.8771 22.9997 21.1951 22.9364 21.4918 22.8135C21.7884 22.6905 22.0579 22.5103 22.2849 22.2832C22.5119 22.056 22.6919 21.7863 22.8146 21.4896C22.9373 21.1928 23.0003 20.8748 23 20.5537V15.6647C23 15.0165 22.7425 14.3949 22.2842 13.9365C21.8259 13.4782 21.2042 13.2207 20.556 13.2207Z" stroke="#0F79F6" stroke-width="2" stroke-linecap="round" stroke-linejoin="round"/>
</svg>
