<svg width="44" height="44" viewBox="0 0 44 44" fill="none" xmlns="http://www.w3.org/2000/svg">
<g clip-path="url(#clip0_2_2573)">
<path d="M44 22C44 9.84974 34.1503 0 22 0C9.84974 0 0 9.84974 0 22C0 34.1503 9.84974 44 22 44C34.1503 44 44 34.1503 44 22Z" fill="#FDF8F3"/>
<path d="M31 18C31 16.343 27.866 15 24 15C20.134 15 17 16.343 17 18M31 18V22C31 23.02 29.814 23.92 28 24.462C26.866 24.802 25.487 25 24 25C22.513 25 21.134 24.801 20 24.462C18.187 23.92 17 23.02 17 22V18M31 18C31 19.02 29.814 19.92 28 20.462C26.866 20.802 25.487 21 24 21C22.513 21 21.134 20.801 20 20.462C18.187 19.92 17 19.02 17 18" stroke="#FF9428" stroke-width="2" stroke-linecap="round" stroke-linejoin="round"/>
<path d="M13 21.9991V25.9991C13 27.0191 14.187 27.9191 16 28.4611C17.134 28.8011 18.513 28.9991 20 28.9991C21.487 28.9991 22.866 28.8001 24 28.4611C25.813 27.9191 27 27.0191 27 25.9991V24.9991M13 21.9991C13 20.8021 14.635 19.7691 17 19.2891M13 21.9991C13 23.0191 14.187 23.9191 16 24.4611C17.134 24.8011 18.513 24.9991 20 24.9991C20.695 24.9991 21.366 24.9561 22 24.8751" stroke="#FF9428" stroke-width="2" stroke-linecap="round" stroke-linejoin="round"/>
</g>
<defs>
<clipPath id="clip0_2_2573">
<rect width="44" height="44" fill="white"/>
</clipPath>
</defs>
</svg>
