<svg width="13" height="12" viewBox="0 0 13 12" fill="none" xmlns="http://www.w3.org/2000/svg">
<path d="M4.67579 11.9996C4.32974 11.9996 4.07374 11.8549 3.83191 11.5574L0.249929 7.07491C0.0758893 6.8604 0 6.66005 0 6.45262C0 5.97502 0.353138 5.62896 0.836806 5.62896C1.14138 5.62896 1.34881 5.74027 1.54915 6.00942L4.64847 9.98602L10.6579 0.442182C10.8653 0.117375 11.0667 0 11.4057 0C11.8893 0 12.2212 0.331889 12.2212 0.809486C12.2212 0.995668 12.1656 1.18994 12.0209 1.41053L5.51968 11.5504C5.43059 11.6925 5.30577 11.8088 5.1577 11.8876C5.00962 11.9664 4.84346 12.0051 4.67579 11.9996Z" fill="#282674"/>
</svg>
