<svg width="13" height="23" viewBox="0 0 13 23" fill="none" xmlns="http://www.w3.org/2000/svg">
<path d="M0 11.5002C0 11.0582 0.152999 10.6812 0.498995 10.3442L10.4689 0.429275C10.6024 0.290164 10.7633 0.180225 10.9415 0.106391C11.1196 0.0325558 11.3111 -0.00357405 11.5039 0.000278695C12.3349 0.000278695 12.9999 0.650273 12.9999 1.50726C12.9999 1.92326 12.8209 2.30026 12.5529 2.58625L3.55297 11.5002L12.5529 20.4141C12.8329 20.7131 12.9999 21.0901 12.9999 21.5061C13.0018 21.703 12.9643 21.8982 12.8898 22.0805C12.8152 22.2627 12.7051 22.4282 12.5658 22.5674C12.4264 22.7065 12.2608 22.8164 12.0784 22.8907C11.8961 22.965 11.7008 23.0022 11.5039 23.0001C11.0949 23.0001 10.7499 22.8571 10.4689 22.5711L0.498995 12.6562C0.165998 12.3202 0 11.9422 0 11.5002Z" fill="#4B4A72"/>
</svg>
