<svg width="44" height="44" viewBox="0 0 44 44" fill="none" xmlns="http://www.w3.org/2000/svg">
<g clip-path="url(#clip0_2_2608)">
<path d="M44 22C44 9.84974 34.1503 0 22 0C9.84974 0 0 9.84974 0 22C0 34.1503 9.84974 44 22 44C34.1503 44 44 34.1503 44 22Z" fill="#EEEEFF"/>
<path d="M25.99 13.772L28.457 11.312C28.659 11.1109 28.9325 10.998 29.2175 10.998C29.5025 10.998 29.776 11.1109 29.978 11.312L31.685 13.013C31.7849 13.1125 31.8642 13.2306 31.9183 13.3608C31.9724 13.491 32.0003 13.6306 32.0003 13.7715C32.0003 13.9125 31.9724 14.0521 31.9183 14.1822C31.8642 14.3124 31.7849 14.4306 31.685 14.53L29.218 16.988M25.99 13.772L19.848 19.891C19.7482 19.9904 19.669 20.1085 19.6149 20.2386C19.5609 20.3687 19.533 20.5082 19.533 20.649V22.349C19.5327 22.4902 19.5604 22.6301 19.6144 22.7605C19.6685 22.8909 19.7478 23.0094 19.8478 23.1091C19.9478 23.2087 20.0666 23.2876 20.1972 23.3411C20.3279 23.3947 20.4678 23.4218 20.609 23.421H22.315C22.601 23.421 22.875 23.308 23.076 23.107L29.218 16.988M25.99 13.772L29.218 16.988M15.228 23.421H14.152C13.582 23.421 13.034 23.647 12.63 24.049C12.4303 24.2479 12.2718 24.4842 12.1637 24.7444C12.0556 25.0047 11.9999 25.2837 11.9999 25.5655C11.9999 25.8473 12.0556 26.1264 12.1637 26.3866C12.2718 26.6469 12.4303 26.8832 12.63 27.082C13.034 27.484 13.581 27.71 14.152 27.71H29.218C29.788 27.71 30.336 27.936 30.739 28.338C30.9387 28.5369 31.0972 28.7732 31.2053 29.0334C31.3134 29.2937 31.3691 29.5727 31.3691 29.8545C31.3691 30.1363 31.3134 30.4154 31.2053 30.6756C31.0972 30.9359 30.9387 31.1722 30.739 31.371C30.335 31.7732 29.7881 31.999 29.218 31.999H24.913" stroke="#5653FE" stroke-width="1.68" stroke-linecap="round" stroke-linejoin="round"/>
</g>
<defs>
<clipPath id="clip0_2_2608">
<rect width="44" height="44" fill="white"/>
</clipPath>
</defs>
</svg>
