<svg width="13" height="23" viewBox="0 0 13 23" fill="none" xmlns="http://www.w3.org/2000/svg">
<path d="M13 11.5C13 11.942 12.847 12.319 12.502 12.656L2.53006 22.572C2.39655 22.7108 2.23577 22.8205 2.05782 22.8941C1.87987 22.9678 1.68861 23.0038 1.49606 23C0.665064 23 6.70506e-05 22.35 6.70506e-05 21.493C6.70506e-05 21.077 0.179066 20.7 0.447065 20.414L9.44702 11.5L0.447065 2.58608C0.162639 2.29346 0.00245853 1.90214 6.70506e-05 1.49408C-0.00180705 1.2972 0.035623 1.10192 0.110165 0.91968C0.184707 0.737443 0.294863 0.571911 0.43418 0.43278C0.573498 0.293649 0.739176 0.183715 0.921513 0.109417C1.10385 0.0351185 1.29918 -0.00205027 1.49606 8.72222e-05C1.90506 8.72222e-05 2.25006 0.143087 2.53106 0.429085L12.501 10.344C12.834 10.681 13 11.058 13 11.5Z" fill="#4B4A72"/>
</svg>
