<svg width="44" height="44" viewBox="0 0 44 44" fill="none" xmlns="http://www.w3.org/2000/svg">
<g clip-path="url(#clip0_2_2635)">
<path d="M44 22C44 9.84974 34.1503 0 22 0C9.84974 0 0 9.84974 0 22C0 34.1503 9.84974 44 22 44C34.1503 44 44 34.1503 44 22Z" fill="#EEEEFF"/>
<path d="M23.765 25.0544V15.7944M23.765 25.0544L30.24 28.6954C30.5103 28.8464 30.8288 28.8862 31.128 28.8065C31.4271 28.7268 31.6836 28.5338 31.843 28.2684C31.946 28.0924 32 27.8934 32 27.6904V13.1574C32 12.9544 31.946 12.7554 31.843 12.5804C31.7393 12.4038 31.591 12.2576 31.413 12.1564C31.2344 12.0546 31.0326 12.0007 30.827 12C30.6215 11.9993 30.4192 12.0518 30.24 12.1524L23.765 15.7944M23.765 25.0544H20.235M23.765 15.7944H16.705C15.4613 15.7926 14.2666 16.2792 13.378 17.1494C12.9423 17.5764 12.5961 18.086 12.3595 18.6483C12.1229 19.2106 12.0007 19.8144 12 20.4244C12 21.6524 12.496 22.8304 13.378 23.6984C14.2666 24.5693 15.4618 25.0562 16.706 25.0544M20.235 25.0544L20.236 30.2644C20.236 30.7244 20.049 31.1664 19.718 31.4914C19.388 31.8174 18.938 32.0004 18.471 32.0004C18.003 32.0004 17.554 31.8174 17.223 31.4914C17.0597 31.3315 16.9299 31.1406 16.8411 30.9299C16.7523 30.7193 16.7064 30.493 16.706 30.2644V25.0544M20.235 25.0544H16.706" stroke="#5653FE" stroke-width="2" stroke-linecap="round" stroke-linejoin="round"/>
</g>
<defs>
<clipPath id="clip0_2_2635">
<rect width="44" height="44" fill="white"/>
</clipPath>
</defs>
</svg>
