<svg width="7" height="13" viewBox="0 0 7 13" fill="none" xmlns="http://www.w3.org/2000/svg">
<path d="M7 6.09089C7 6.32446 6.91744 6.5238 6.73119 6.703L1.36315 11.9543C1.2907 12.028 1.20393 12.0861 1.10819 12.1251C1.01245 12.164 0.909754 12.183 0.806414 12.1808C0.700721 12.1827 0.595723 12.1634 0.497616 12.124C0.399509 12.0846 0.310284 12.026 0.235208 11.9516C0.160133 11.8772 0.100729 11.7885 0.0605039 11.6907C0.0202789 11.593 4.88875e-05 11.4881 0.00100717 11.3824C0.00100717 11.1619 0.0976558 10.9626 0.242629 10.8116L5.08715 6.08989L0.241622 1.36919C0.0886612 1.21554 0.00193173 1.00811 0 0.791313C0 0.343305 0.358406 0 0.805408 0C1.02689 0 1.21214 0.0755068 1.36315 0.226521L6.73119 5.47778C6.81584 5.55592 6.88342 5.65073 6.92968 5.75624C6.97594 5.86175 6.99988 5.97569 7 6.09089Z" fill="white"/>
</svg>
