<svg width="44" height="44" viewBox="0 0 44 44" fill="none" xmlns="http://www.w3.org/2000/svg">
<g clip-path="url(#clip0_2_2600)">
<path d="M44 22C44 9.84974 34.1503 0 22 0C9.84974 0 0 9.84974 0 22C0 34.1503 9.84974 44 22 44C34.1503 44 44 34.1503 44 22Z" fill="#DDF4FF"/>
<path d="M18.416 15.938C18.615 15.723 18.725 15.434 18.722 15.134C18.7207 14.8369 18.6067 14.5513 18.403 14.335C18.3051 14.231 18.1872 14.1478 18.0565 14.0903C17.9258 14.0327 17.7848 14.002 17.642 14C17.4991 13.9992 17.3576 14.0273 17.2258 14.0824C17.094 14.1376 16.9747 14.2187 16.875 14.321L13.285 18.088L11.875 16.608C11.7752 16.5059 11.6559 16.4249 11.5241 16.37C11.3923 16.315 11.2508 16.2871 11.108 16.288C10.822 16.29 10.548 16.411 10.346 16.623C10.1419 16.8392 10.0276 17.1248 10.026 17.422C10.024 17.722 10.134 18.011 10.333 18.226L12.513 20.514C12.718 20.729 12.995 20.849 13.284 20.849C13.574 20.849 13.851 20.729 14.055 20.514L18.416 15.939V15.938ZM22.006 16.274C21.718 16.274 21.44 16.394 21.236 16.609C21.031 16.823 20.916 17.114 20.916 17.418C20.916 17.721 21.031 18.012 21.236 18.226C21.44 18.441 21.718 18.561 22.006 18.561H32.91C33.199 18.561 33.476 18.441 33.68 18.226C33.885 18.012 34 17.721 34 17.418C34 17.114 33.885 16.823 33.68 16.608C33.581 16.5031 33.4617 16.4194 33.3293 16.362C33.1969 16.3045 33.0543 16.2746 32.91 16.274H22.006ZM18.416 23.472C18.621 23.687 18.736 23.977 18.736 24.281C18.736 24.584 18.621 24.875 18.416 25.09L14.056 29.665C13.9568 29.7704 13.8372 29.8544 13.7045 29.912C13.5718 29.9696 13.4287 29.9995 13.284 30C12.995 30 12.718 29.88 12.514 29.665L10.333 27.377C10.2279 27.2705 10.1447 27.1445 10.088 27.006C10.0027 26.7958 9.97913 26.5656 10.02 26.3424C10.061 26.1192 10.1647 25.9123 10.319 25.746C10.422 25.638 10.543 25.553 10.677 25.496C10.8105 25.4386 10.9545 25.4096 11.0998 25.411C11.2452 25.4124 11.3886 25.4441 11.521 25.504C11.654 25.564 11.774 25.651 11.874 25.76L13.284 27.239L16.874 23.472C17.079 23.258 17.356 23.137 17.645 23.137C17.935 23.137 18.212 23.257 18.416 23.472ZM22.006 25.425C21.718 25.425 21.44 25.545 21.236 25.76C21.031 25.974 20.916 26.265 20.916 26.569C20.916 26.872 21.031 27.163 21.236 27.378C21.44 27.592 21.718 27.712 22.006 27.712H32.91C33.199 27.712 33.476 27.592 33.68 27.378C33.885 27.163 34 26.872 34 26.568C34 26.265 33.885 25.974 33.68 25.76C33.5811 25.6549 33.4618 25.571 33.3294 25.5134C33.197 25.4558 33.0544 25.4258 32.91 25.425H22.006Z" fill="#0F79F6"/>
</g>
<defs>
<clipPath id="clip0_2_2600">
<rect width="44" height="44" fill="white"/>
</clipPath>
</defs>
</svg>
