<svg width="44" height="27" viewBox="0 0 44 27" fill="none" xmlns="http://www.w3.org/2000/svg">
<path d="M39.9744 0H4.02562C1.80233 0 0 1.80233 0 4.02562V22.4227C0 24.646 1.80233 26.4483 4.02562 26.4483H39.9744C42.1977 26.4483 44 24.646 44 22.4227V4.02562C44 1.80233 42.1977 0 39.9744 0Z" fill="#219653"/>
<path d="M13.1638 19.2823C12.4009 19.2823 11.7186 19.1384 11.1167 18.8526C10.5431 18.5871 10.0483 18.1772 9.6806 17.663C9.32854 17.1548 9.13393 16.5542 9.12104 15.936H11.1791C11.2174 16.4161 11.4247 16.8096 11.8031 17.1135C12.1795 17.4155 12.6334 17.5664 13.1628 17.5664C13.5784 17.5664 13.9478 17.4708 14.2728 17.2806C14.5969 17.0894 14.8525 16.8247 15.0387 16.4855C15.2259 16.1464 15.3175 15.7589 15.3134 15.3242C15.3175 14.8813 15.2229 14.4888 15.0337 14.1467C14.8506 13.8116 14.5795 13.5328 14.2497 13.3405C13.9032 13.1382 13.5076 13.0351 13.1064 13.0426C12.7519 13.0393 12.4001 13.1053 12.0708 13.2369C11.7656 13.3483 11.4902 13.5284 11.2657 13.7632L9.34949 13.4492L9.96139 7.41079H16.7546V9.18307H11.7166L11.3794 12.2878H11.4478C11.6652 12.0322 11.9712 11.8209 12.3687 11.6538C12.7652 11.4827 13.2 11.3962 13.672 11.3962C14.3815 11.3962 15.0145 11.5642 15.5711 11.8994C16.1276 12.2315 16.5654 12.6884 16.8855 13.2721C17.2065 13.8548 17.3665 14.522 17.3665 15.2728C17.3665 16.0478 17.1874 16.7371 16.8291 17.343C16.4753 17.9446 15.9628 18.4373 15.3477 18.7671C14.7187 19.1092 13.991 19.2823 13.1638 19.2823ZM28.9029 16.9243L31.9634 16.1041L33.2426 20.2696L28.9029 16.9243ZM35.9478 11.5401H30.5595L28.9029 6.17996L27.2464 11.5411H21.8581L26.2189 14.8642L24.5623 20.2253L28.9241 16.9022L31.6071 14.8642L35.9478 11.5411V11.5401Z" fill="white"/>
</svg>
