<svg width="80" height="20" viewBox="0 0 80 20" fill="none" xmlns="http://www.w3.org/2000/svg">
<g clip-path="url(#clip0_2_3003)">
<path d="M20.9999 7.02822H29.0908V8.5293H25.9095V16.9676H24.1601V8.5293H20.9928V7.02822H20.9999ZM28.7452 9.77084H30.2407V11.1597H30.2689C30.3182 10.9633 30.4099 10.7739 30.544 10.5915C30.678 10.4092 30.8402 10.2338 31.0307 10.0865C31.2212 9.93217 31.4328 9.81293 31.6656 9.71473C31.8984 9.62354 32.1382 9.57444 32.378 9.57444C32.5614 9.57444 32.6955 9.58145 32.766 9.58847C32.8365 9.59548 32.9071 9.60951 32.9847 9.61653V11.1457C32.8718 11.1246 32.7589 11.1106 32.639 11.0966C32.5191 11.0825 32.4062 11.0755 32.2934 11.0755C32.0253 11.0755 31.7714 11.1316 31.5315 11.2368C31.2917 11.3421 31.0871 11.5034 30.9108 11.7068C30.7344 11.9172 30.5934 12.1698 30.4875 12.4784C30.3817 12.787 30.3324 13.1377 30.3324 13.5376V16.9606H28.7381V9.77084L28.7452 9.77084ZM40.3138 16.9676H38.7478V15.9645H38.7196C38.5221 16.3293 38.2329 16.6169 37.8449 16.8343C37.4569 17.0518 37.0619 17.164 36.6598 17.164C35.7075 17.164 35.0162 16.9325 34.593 16.4626C34.1697 15.9926 33.9581 15.2841 33.9581 14.3372V9.77084H35.5523V14.1829C35.5523 14.8142 35.6723 15.2631 35.9191 15.5226C36.159 15.7822 36.5046 15.9154 36.942 15.9154C37.2806 15.9154 37.5557 15.8663 37.7814 15.7611C38.0071 15.6559 38.1905 15.5226 38.3246 15.3473C38.4657 15.1789 38.5644 14.9685 38.6279 14.73C38.6914 14.4915 38.7196 14.232 38.7196 13.9514V9.77786H40.3138V16.9676ZM43.0296 14.6599C43.079 15.1228 43.2553 15.4455 43.5587 15.6349C43.869 15.8172 44.2359 15.9154 44.6661 15.9154C44.8143 15.9154 44.9836 15.9014 45.174 15.8804C45.3645 15.8593 45.5479 15.8102 45.7101 15.7471C45.8794 15.684 46.0135 15.5858 46.1263 15.4595C46.2321 15.3332 46.2815 15.1719 46.2745 14.9685C46.2674 14.7651 46.1898 14.5967 46.0487 14.4705C45.9077 14.3372 45.7313 14.239 45.5126 14.1548C45.294 14.0777 45.0471 14.0075 44.7649 13.9514C44.4827 13.8953 44.2006 13.8322 43.9114 13.769C43.6151 13.7059 43.3259 13.6217 43.0508 13.5305C42.7757 13.4394 42.5288 13.3131 42.3101 13.1518C42.0914 12.9975 41.9151 12.794 41.7881 12.5485C41.6541 12.303 41.5906 12.0014 41.5906 11.6367C41.5906 11.2439 41.6893 10.9212 41.8798 10.6547C42.0703 10.3881 42.3172 10.1777 42.6064 10.0163C42.9026 9.85502 43.2271 9.74279 43.5869 9.67264C43.9466 9.60951 44.2923 9.57444 44.6168 9.57444C44.9906 9.57444 45.3504 9.61653 45.689 9.69368C46.0276 9.77084 46.3379 9.8971 46.6131 10.0795C46.8882 10.2548 47.1139 10.4863 47.2973 10.7669C47.4807 11.0475 47.5936 11.3912 47.6429 11.791H45.9782C45.9006 11.4122 45.7313 11.1527 45.4562 11.0264C45.1811 10.8931 44.8637 10.83 44.511 10.83C44.3981 10.83 44.2641 10.837 44.1089 10.8581C43.9537 10.8791 43.8126 10.9142 43.6715 10.9633C43.5375 11.0124 43.4246 11.0895 43.3259 11.1877C43.2342 11.2859 43.1848 11.4122 43.1848 11.5735C43.1848 11.7699 43.2553 11.9243 43.3894 12.0435C43.5234 12.1627 43.6997 12.2609 43.9184 12.3451C44.1371 12.4223 44.384 12.4924 44.6661 12.5485C44.9483 12.6047 45.2375 12.6678 45.5338 12.7309C45.823 12.794 46.1052 12.8782 46.3873 12.9694C46.6695 13.0606 46.9164 13.1868 47.1351 13.3482C47.3537 13.5095 47.5301 13.7059 47.6641 13.9444C47.7981 14.1829 47.8687 14.4845 47.8687 14.8352C47.8687 15.2631 47.7699 15.6208 47.5724 15.9225C47.3749 16.2171 47.1209 16.4626 46.8106 16.6449C46.5002 16.8273 46.1475 16.9676 45.7666 17.0518C45.3857 17.1359 45.0047 17.178 44.6309 17.178C44.1724 17.178 43.7491 17.1289 43.3612 17.0237C42.9732 16.9185 42.6346 16.7642 42.3524 16.5608C42.0703 16.3503 41.8445 16.0908 41.6823 15.7822C41.52 15.4735 41.4354 15.1018 41.4213 14.6739H43.0296V14.6599ZM48.2919 9.77084H49.4982V7.61041H51.0924V9.77084H52.5314V10.9563H51.0924V14.8002C51.0924 14.9685 51.0994 15.1088 51.1135 15.235C51.1276 15.3543 51.1629 15.4595 51.2123 15.5437C51.2617 15.6278 51.3393 15.691 51.4451 15.7331C51.5509 15.7751 51.6849 15.7962 51.8683 15.7962C51.9812 15.7962 52.094 15.7962 52.2069 15.7892C52.3198 15.7822 52.4326 15.7681 52.5455 15.7401V16.9676C52.3691 16.9886 52.1928 17.0027 52.0306 17.0237C51.8613 17.0448 51.692 17.0518 51.5156 17.0518C51.0924 17.0518 50.7538 17.0097 50.4998 16.9325C50.2459 16.8554 50.0413 16.7361 49.9002 16.5818C49.7521 16.4275 49.6604 16.2381 49.604 16.0066C49.5546 15.7751 49.5193 15.5086 49.5123 15.214V10.9703H48.306V9.77084H48.2919ZM53.66 9.77084H55.1696V10.7458H55.1978C55.4235 10.325 55.7339 10.0304 56.136 9.848C56.5381 9.66563 56.9684 9.57444 57.441 9.57444C58.0124 9.57444 58.5062 9.67264 58.9294 9.87606C59.3526 10.0725 59.7053 10.346 59.9875 10.6967C60.2697 11.0475 60.4742 11.4543 60.6153 11.9172C60.7564 12.3802 60.8269 12.8782 60.8269 13.4043C60.8269 13.8883 60.7634 14.3582 60.6365 14.8072C60.5095 15.2631 60.319 15.6629 60.0651 16.0136C59.8112 16.3644 59.4867 16.6379 59.0916 16.8483C58.6966 17.0588 58.2381 17.164 57.702 17.164C57.4692 17.164 57.2364 17.143 57.0036 17.1009C56.7709 17.0588 56.5451 16.9886 56.3335 16.8974C56.1219 16.8063 55.9173 16.687 55.741 16.5397C55.5576 16.3924 55.4094 16.2241 55.2825 16.0347H55.2542V19.626H53.66V9.77084ZM59.2327 13.3762C59.2327 13.0536 59.1904 12.7379 59.1057 12.4293C59.0211 12.1207 58.8941 11.8541 58.7248 11.6156C58.5555 11.3771 58.3439 11.1877 58.097 11.0475C57.8431 10.9072 57.5539 10.83 57.2294 10.83C56.5592 10.83 56.0514 11.0615 55.7128 11.5244C55.3742 11.9874 55.2049 12.6047 55.2049 13.3762C55.2049 13.741 55.2472 14.0777 55.3389 14.3863C55.4306 14.6949 55.5576 14.9615 55.741 15.1859C55.9173 15.4104 56.1289 15.5858 56.3758 15.712C56.6227 15.8453 56.9119 15.9084 57.2364 15.9084C57.6032 15.9084 57.9066 15.8313 58.1605 15.684C58.4145 15.5367 58.619 15.3403 58.7813 15.1088C58.9435 14.8703 59.0634 14.6037 59.134 14.3021C59.1975 14.0005 59.2327 13.6919 59.2327 13.3762ZM62.0473 7.02822H63.6415V8.5293H62.0473V7.02822ZM62.0473 9.77084H63.6415V16.9676H62.0473V9.77084ZM65.0664 7.02822H66.6606V16.9676H65.0664V7.02822ZM71.5491 17.164C70.9706 17.164 70.4557 17.0658 70.0042 16.8764C69.5528 16.687 69.1719 16.4205 68.8544 16.0908C68.544 15.7541 68.3042 15.3543 68.142 14.8913C67.9797 14.4284 67.8951 13.9163 67.8951 13.3622C67.8951 12.8151 67.9797 12.31 68.142 11.8471C68.3042 11.3841 68.544 10.9843 68.8544 10.6476C69.1648 10.3109 69.5528 10.0514 70.0042 9.86203C70.4557 9.67264 70.9706 9.57444 71.5491 9.57444C72.1275 9.57444 72.6424 9.67264 73.0939 9.86203C73.5454 10.0514 73.9263 10.318 74.2437 10.6476C74.5541 10.9843 74.7939 11.3841 74.9562 11.8471C75.1184 12.31 75.203 12.8151 75.203 13.3622C75.203 13.9163 75.1184 14.4284 74.9562 14.8913C74.7939 15.3543 74.5541 15.7541 74.2437 16.0908C73.9333 16.4275 73.5454 16.687 73.0939 16.8764C72.6424 17.0658 72.1275 17.164 71.5491 17.164ZM71.5491 15.9084C71.9018 15.9084 72.2121 15.8313 72.4731 15.684C72.7341 15.5367 72.9458 15.3403 73.1151 15.1018C73.2844 14.8633 73.4043 14.5897 73.4889 14.2881C73.5665 13.9865 73.6088 13.6779 73.6088 13.3622C73.6088 13.0536 73.5665 12.752 73.4889 12.4433C73.4113 12.1347 73.2844 11.8681 73.1151 11.6297C72.9458 11.3912 72.7341 11.2018 72.4731 11.0545C72.2121 10.9072 71.9018 10.83 71.5491 10.83C71.1964 10.83 70.886 10.9072 70.625 11.0545C70.364 11.2018 70.1524 11.3982 69.9831 11.6297C69.8138 11.8681 69.6938 12.1347 69.6092 12.4433C69.5316 12.752 69.4893 13.0536 69.4893 13.3622C69.4893 13.6779 69.5316 13.9865 69.6092 14.2881C69.6868 14.5897 69.8138 14.8633 69.9831 15.1018C70.1524 15.3403 70.364 15.5367 70.625 15.684C70.886 15.8383 71.1964 15.9084 71.5491 15.9084ZM75.6686 9.77084H76.8748V7.61041H78.4691V9.77084H79.9081V10.9563H78.4691V14.8002C78.4691 14.9685 78.4761 15.1088 78.4902 15.235C78.5043 15.3543 78.5396 15.4595 78.589 15.5437C78.6384 15.6278 78.716 15.691 78.8218 15.7331C78.9276 15.7751 79.0616 15.7962 79.245 15.7962C79.3579 15.7962 79.4707 15.7962 79.5836 15.7892C79.6965 15.7822 79.8093 15.7681 79.9222 15.7401V16.9676C79.7458 16.9886 79.5695 17.0027 79.4073 17.0237C79.238 17.0448 79.0687 17.0518 78.8923 17.0518C78.4691 17.0518 78.1305 17.0097 77.8765 16.9325C77.6226 16.8554 77.418 16.7361 77.2769 16.5818C77.1288 16.4275 77.0371 16.2381 76.9807 16.0066C76.9313 15.7751 76.896 15.5086 76.889 15.214V10.9703H75.6827V9.77084L75.6686 9.77084Z" fill="#191919"/>
<path d="M19.1376 7.02854H11.8296L9.57232 0.112366L7.30798 7.02854L0 7.02153L5.91833 11.3003L3.65399 18.2095L9.57232 13.9377L15.4836 18.2095L13.2263 11.3003L19.1376 7.02854Z" fill="#00B67A"/>
<path d="M13.7342 12.8643L13.2263 11.3001L9.57232 13.9375L13.7342 12.8643Z" fill="#005128"/>
</g>
<defs>
<clipPath id="clip0_2_3003">
<rect width="79.9566" height="19.6719" fill="white" transform="scale(1.00054)"/>
</clipPath>
</defs>
</svg>
